HIERARCHY
ROOT Hips
{
  OFFSET 46.82207107543945 -59.04210805892944 0.0010819640010595322
  CHANNELS 6 Xposition Yposition Zposition Xrotation Yrotation Zrotation
  JOINT Spine
  {
    OFFSET -1.2058248122533115 5.467524131139122 -8.225524720425408
    CHANNELS 3 Xrotation Yrotation Zrotation
    JOINT Spine1
    {
      OFFSET -0.8038832081688838 3.6450160874260717 -5.48368314695027
      CHANNELS 3 Xrotation Yrotation Zrotation
      JOINT Spine2
      {
        OFFSET -0.8038832081688767 3.645016087426086 -5.483683146950273
        CHANNELS 3 Xrotation Yrotation Zrotation
        JOINT Neck
        {
          OFFSET -1.2058248122533115 5.467524131139115 -8.225524720425405
          CHANNELS 3 Xrotation Yrotation Zrotation
          JOINT Head
          {
            OFFSET -0.9295318689611278 1.984565373924049 -4.50340492081725
            CHANNELS 3 Xrotation Yrotation Zrotation
            End Site
            {
              OFFSET 0 0 0
            }
          }
        }
        JOINT LeftShoulder
        {
          OFFSET 0.46457813845740503 4.005969895256889 -7.544616806424326
          CHANNELS 3 Xrotation Yrotation Zrotation
          JOINT LeftArm
          {
            OFFSET 2.5369226932525635 0.7219076156616211 -4.121867318948109
            CHANNELS 3 Xrotation Yrotation Zrotation
            JOINT LeftForeArm
            {
              OFFSET 4.607576131820679 -11.81911826133728 -0.8936822414398193
              CHANNELS 3 Xrotation Yrotation Zrotation
              JOINT LeftHand
              {
                OFFSET 0.6915509700775146 -11.635690927505493 -4.888880252838135
                CHANNELS 3 Xrotation Yrotation Zrotation
                End Site
                {
                  OFFSET 0 0 0
                }
              }
            }
          }
        }
        JOINT RightShoulder
        {
          OFFSET -2.0723445547951584 3.2840622795952683 -3.422749487476217
          CHANNELS 3 Xrotation Yrotation Zrotation
          JOINT RightArm
          {
            OFFSET -2.5369226932525635 -0.7219076156616211 4.121867318948112
            CHANNELS 3 Xrotation Yrotation Zrotation
            JOINT RightForeArm
            {
              OFFSET -2.9952138662338257 -6.997698545455933 9.291533380746841
              CHANNELS 3 Xrotation Yrotation Zrotation
              JOINT RightHand
              {
                OFFSET -4.614326357841492 -4.685533046722412 1.068349927663803
                CHANNELS 3 Xrotation Yrotation Zrotation
                End Site
                {
                  OFFSET 0 0 0
                }
              }
            }
          }
        }
      }
    }
  }
  JOINT LeftUpLeg
  {
    OFFSET 2.1851807832717896 0.3100275993347168 -0.8264350239187479
    CHANNELS 3 Xrotation Yrotation Zrotation
    JOINT LeftLeg
    {
      OFFSET 2.1056383848190308 -16.273707151412964 -0.5426528863608837
      CHANNELS 3 Xrotation Yrotation Zrotation
      JOINT LeftFoot
      {
        OFFSET -2.0275503396987915 -12.393641471862793 22.925514355301857
        CHANNELS 3 Xrotation Yrotation Zrotation
        JOINT LeftToeBase
        {
          OFFSET 0.8445554971694946 -4.20859694480896 -5.926468819379805
          CHANNELS 3 Xrotation Yrotation Zrotation
          End Site
          {
            OFFSET 0 0 0
          }
        }
      }
    }
  }
  JOINT RightUpLeg
  {
    OFFSET -2.1851807832717896 -0.3100275993347168 0.8264350239187479
    CHANNELS 3 Xrotation Yrotation Zrotation
    JOINT RightLeg
    {
      OFFSET -0.9887039661407471 -14.45702314376831 -31.3066978007555
      CHANNELS 3 Xrotation Yrotation Zrotation
      JOINT RightFoot
      {
        OFFSET -1.1222213506698608 -19.014567136764526 6.933662295341492
        CHANNELS 3 Xrotation Yrotation Zrotation
        JOINT RightToeBase
        {
          OFFSET 0.23304462432861328 -4.958255290985107 -8.707971572875977
          CHANNELS 3 Xrotation Yrotation Zrotation
          End Site
          {
            OFFSET 0 0 0
          }
        }
      }
    }
  }
}
MOTION
Frames: 7
Frame Time: 0.03333333333333333
46.82207107543945 -59.04210805892944 0.0010819640010595322 -0.0 -171.66010080159606 -7.7369042051270345 -53.82979999404575 -17.557516292045854 21.40234752559297 -53.82979999404575 -17.557516292045854 21.40234752559297 -53.82979999404575 -17.557516292045854 21.40234752559297 -54.51739616752593 -41.076585841063626 46.94808267148932 17.15122210847878 -173.36883787911435 -33.136835732059865 49.331528682049296 -131.60865479006898 -32.52210144083211 3.7541619802265194 1.465783908494692 -158.65408658127936 22.711939670701934 1.425446362667232 -176.31241199679997 36.71126398454819 -175.86226560031403 38.85616515487393 49.331528682049274 -131.60865479006895 -32.52210144083214 -45.3292293267456 25.656568568763664 -145.96391312226362 -6.560540733309155 6.5031781319556154 -135.06556734896847 19.77661607637906 -154.44705528202962 -35.665262591496564 1.8784003290450408 0.24313214689711668 7.376468265496617 -59.942911659208235 16.421756869076845 -18.804705429769655 19.640554486160234 162.58114271376164 8.442577723879406e-16 19.640554486160205 162.5811427137617 0.0 64.87529337001342 -8.385434404160112 9.247285078901976 -19.966119781755168 1.2286106065805458 3.5938940986569743 18.96833960497503 178.68068801700718 -0.0 18.968339604975064 178.68068801700718 -0.0
46.86883091926575 -58.3530455827713 -0.0010893680155277252 -0.0 -170.8888938041383 -3.6326810537400513 -50.613591878647284 -14.902683971348264 19.00028113825481 -50.613591878647284 -14.902683971348264 19.00028113825481 -50.613591878647284 -14.902683971348264 19.00028113825481 -56.17642420719028 -43.02693507385037 48.329735537926574 17.96041109040779 -173.68268116869464 -38.16652323733538 43.3057550636015 -125.86895956034576 -34.46449210542186 -3.8426398244647677 -1.5909166577324048 -157.48923780396518 27.74867742024799 1.0999115741725183 -177.63866457317346 34.02685294762117 -173.10440769909079 56.97485823875365 43.30575506360148 -125.86895956034573 -34.46449210542187 -42.278236750469766 26.969484467757624 -142.8961042056458 9.172649250365232 -9.852151500247013 -132.54891910125187 16.401342813427277 -157.44737913252632 -39.958300355467976 23.973652542882107 3.317684067418817 8.119613119765914 -60.43056089938403 17.583044225574184 -20.019012287682663 27.056803559458714 161.24007958918062 0.0 27.05680355945875 161.2400795891806 8.92856455846445e-16 61.20445241427308 -7.293625826447291 8.30928878174308 -16.961076541088733 0.977883704462103 3.3486160598400603 16.358261598666644 179.74392106336876 -0.0 16.358261598666644 179.74392106336873 -1.2948192345745143e-17
46.922892332077026 -57.24935531616211 -0.005918554961681366 -0.0 -169.41491213416677 -4.454347544701205 -45.610195584993356 -11.980768265005093 16.539238911014653 -45.610195584993356 -11.980768265005093 16.539238911014653 -45.610195584993356 -11.980768265005093 16.539238911014653 -54.7113125866701 -37.27943212631994 43.002316913865094 17.99454709417879 -173.870669859058 -35.6788787971513 41.087889426678814 -131.43741931697818 -27.16044273514842 -0.8867333526351837 -0.3951134690961183 -155.98186320945706 38.54701631450621 -1.2469556257771002 177.999466536067 28.353074262163197 -168.41970494672034 64.76020447357818 41.08788942667881 -131.43741931697815 -27.160442735148436 -6.934176053279331 4.49647706951601 -146.92078503074586 29.856340746995347 -53.99038391169026 -109.89114594203878 9.666405109863588 -162.47596130076457 -38.783155394109734 12.885267550629212 1.7461282470495405 7.784362537342355 -65.34019106709998 38.446919748971624 -41.14031320738217 38.466142011058565 156.8312321526945 2.031068097326308e-15 38.4661420110586 156.8312321526945 2.031068097326309e-15 55.17475048517197 -6.765618040204262 8.223319077852342 -9.052368033859123 0.31628963164142176 2.009462915980784 9.84730487455709 -172.03619263986826 -0.0 9.847304874557134 -172.03619263986826 -0.0
46.84622585773468 -56.45231306552887 -0.007196981459856033 -0.0 -166.94039404882227 -5.73729752881961 -38.84428159095211 -9.104132414688072 14.332182088405379 -38.84428159095211 -9.104132414688072 14.332182088405379 -38.84428159095211 -9.104132414688072 14.332182088405379 -53.83934188617873 -30.40774239933894 36.013592404798715 15.549156745194193 -174.01479981906886 -27.77862928919953 37.182299313581396 -137.6742108211547 -18.710120962798623 4.558375517404525 2.3699201668195577 -152.4917337940814 48.44572178254228 -10.314453507749185 166.33116826178508 23.935466960064083 -164.2739305651492 73.23327601621908 37.182299313581396 -137.6742108211547 -18.710120962798623 8.287161973279925 -6.955375385374778 -139.75574206705136 28.515624147633925 -59.8991612571461 -105.46929464354261 10.956471407721471 -162.57554128083333 -40.3642529916586 15.15521951647071 2.253115574514228 8.558485223668718 -64.59432518841955 46.36783007641627 -49.26622787207784 37.67681387256226 157.388496621397 0.0 37.67681387256223 157.388496621397 0.0 50.20510060310188 -6.1013421372589836 7.920250817146427 -15.562523270882709 -0.026899796285107663 -0.10026387220994862 8.475863267285419 -168.24023981953886 2.0097975996780036e-16 8.475863267285444 -168.24023981953889 -2.0097975996780036e-16
46.83964401483536 -56.388407945632935 -0.007907906547188759 -0.0 -161.93684829944408 -5.265570831828079 -29.642569134410653 -6.329753676041269 12.641172796479868 -29.642569134410653 -6.329753676041269 12.641172796479868 -29.642569134410653 -6.329753676041269 12.641172796479868 -50.04448355881999 -20.707674109558244 26.25025724367097 13.833691361048187 -173.66377138302775 -26.314546282698952 29.46934360132609 -136.671422920651 -13.071570432765213 24.513182258378077 16.515634361548923 -144.44848595396195 61.51457811090387 -32.521111084058326 144.04259533637372 12.054006859217367 -164.07158740075366 74.42922999028589 29.46934360132609 -136.671422920651 -13.071570432765213 9.247433148492757 -9.954470291131168 -132.4778332465864 22.722205620732407 -60.2513027239398 -102.44873649994237 10.055384968956643 -162.77950474606826 -43.6530404946746 15.020101052171697 2.33501164673771 8.941680679032773 -64.15794023856479 42.45845779030735 -45.47348292658687 34.182040813281574 157.50498367195974 0.0 34.182040813281574 157.50498367195968 1.922350472514905e-15 45.69965257269194 -6.050757472952509 8.424780609656908 -25.10369608005767 -1.3368556625422534 -3.1484443978266228 15.91544105452123 -164.6865356427896 -0.0 15.915441054521212 -164.6865356427896 -0.0
46.83760106563568 -56.512945890426636 -0.008361786603927612 -0.0 -166.20372166823404 -6.2440875615827105 -36.85268720308527 -8.314490406370828 13.694307507443158 -36.85268720308527 -8.314490406370828 13.694307507443158 -36.85268720308527 -8.314490406370828 13.694307507443158 -56.7638009338978 -23.41109242219616 27.36816146016132 12.204381745991443 -177.39298457661542 -31.69047510243283 33.71724982290789 -131.7801493803495 -20.827662305334698 35.52149981363044 30.210243470911838 -134.9386851363922 28.481881261957003 -78.22342431523688 95.67781012395831 15.289755822268592 -166.8450694843888 52.23096919414912 33.71724982290789 -131.7801493803495 -20.827662305334698 -12.640204814960859 17.052281294411905 -125.50501587941613 16.829651685518307 -56.938563616575074 -100.67293905477663 8.288499243934645 -161.06903939195058 -40.4093551499596 9.570415450148129 1.410013091897445 8.421333115068322 -63.149773538879515 26.03257627027639 -28.698849551195348 20.602566434001098 155.61012971137865 0.0 20.602566434001098 155.61012971137868 -8.494673985622521e-16 35.45656748050519 -4.383707022492442 7.528157473259746 -34.98385349477597 -4.237086803962813 -7.362812698675226 19.59648125767371 -159.67218895656057 -0.0 19.59648125767371 -159.67218895656057 8.440263186411856e-16
46.85957580804825 -56.6377729177475 -0.010753702372312546 -0.0 -163.64872668595535 -4.600402813618849 -32.61756092583565 -7.226982441362032 13.23825470345059 -32.61756092583565 -7.226982441362032 13.23825470345059 -32.61756092583565 -7.226982441362032 13.23825470345059 -50.52397476891354 -16.51749882682572 21.01582693824921 6.860205703650906 -179.17379869003673 -33.054690279081385 30.80990202027721 -132.30545765377866 -17.325166403251256 36.703870154355585 43.45778541290967 -122.24178833129055 18.121259577078668 -80.84421314719724 92.86980337527879 14.386220122441372 -167.498558439274 28.306120035213286 30.809902020277207 -132.30545765377863 -17.325166403251266 -1.8714568490033268 2.8079419041051823 -123.65706371264253 12.967310930154408 -61.58733741935305 -96.92150145892266 6.009485558566178 -162.23893768152897 -41.709677321093416 7.654768014310203 0.9109554887066175 6.807175401139488 -55.383874323247476 10.594537293160617 -12.804670929979176 11.941855758483472 159.03831366960452 -8.127276510156933e-16 11.941855758483502 159.03831366960455 0.0 23.13122272788133 -2.7426337285864593 6.952594240635574 -43.884408529392005 -8.980136674822049 -12.8421682649412 18.929395492685405 -156.01135758027104 -0.0 18.929395492685384 -156.01135758027107 8.405990672529577e-16
